<?xml version="1.0" encoding="UTF-8" standalone="no"?><!-- Generator: Gravit.io --><svg xmlns="http://www.w3.org/2000/svg" xmlns:xlink="http://www.w3.org/1999/xlink" style="isolation:isolate" viewBox="0 0 740 433" width="740pt" height="433pt"><defs><clipPath id="_clipPath_uqCslTA5wsGFnAt6APW4CQEdmbKYrAf8"><rect width="740" height="433"/></clipPath></defs><g clip-path="url(#_clipPath_uqCslTA5wsGFnAt6APW4CQEdmbKYrAf8)"><path d=" M 474.532 377.651 L 474.532 393.121 L 421.873 393.121 L 421.873 408.76 L 474.532 408.76 L 474.532 424.23 L 527.192 400.94 L 523.806 399.443 L 474.532 377.651 Z  M 482.055 386.111 L 515.554 400.94 L 482.055 415.769 L 482.055 404.85 L 429.396 404.85 L 429.396 397.031 L 482.055 397.031 L 482.055 386.111 Z " fill="rgb(0,0,0)"/><path d=" M 265.468 377.651 L 265.468 393.121 L 318.127 393.121 L 318.127 408.76 L 265.468 408.76 L 265.468 424.23 L 212.808 400.94 L 216.194 399.443 L 265.468 377.651 Z  M 257.945 386.111 L 224.446 400.94 L 257.945 415.769 L 257.945 404.85 L 310.604 404.85 L 310.604 397.031 L 257.945 397.031 L 257.945 386.111 Z " fill="rgb(0,0,0)"/><g clip-path="url(#_clipPath_i2oV6J1g39waBuO5brBUNtMccW1RZtyE)"><text transform="matrix(1,0,0,1,343.009,409.716)" style="font-family:'Open Sans';font-weight:700;font-size:30px;font-style:normal;fill:#000000;stroke:none;">Pan</text></g><defs><clipPath id="_clipPath_i2oV6J1g39waBuO5brBUNtMccW1RZtyE"><rect x="0" y="0" width="114.099" height="61.942" transform="matrix(1,0,0,1,315.297,377.651)"/></clipPath></defs><g clip-path="url(#_clipPath_2PbvFivkKJdkfnWQ41hs0foRqgnfivdq)"><text transform="matrix(1,0,0,1,615.887,228.637)" style="font-family:'Open Sans';font-weight:700;font-size:30px;font-style:normal;fill:#000000;stroke:none;">Volume</text></g><defs><clipPath id="_clipPath_2PbvFivkKJdkfnWQ41hs0foRqgnfivdq"><rect x="0" y="0" width="198.1" height="57.318" transform="matrix(1,0,0,1,574.9,196.571)"/></clipPath></defs><path d=" M 701.288 292.26 L 683.128 292.325 L 682.909 247.464 L 664.552 247.529 L 664.772 292.39 L 646.612 292.454 L 674.169 337.218 L 675.913 334.328 L 701.288 292.26 Z  M 691.388 298.704 L 674.121 327.304 L 656.575 298.828 L 669.392 298.782 L 669.173 253.922 L 678.351 253.889 L 678.57 298.75 L 691.388 298.704 Z " fill="rgb(0,0,0)"/><path d=" M 701.288 140.546 L 683.128 140.61 L 683.348 185.471 L 664.991 185.536 L 664.772 140.675 L 646.612 140.74 L 673.731 95.782 L 675.502 98.66 L 701.288 140.546 Z  M 691.325 134.172 L 673.779 105.696 L 656.512 134.296 L 669.33 134.25 L 669.549 179.111 L 678.727 179.078 L 678.508 134.218 L 691.325 134.172 Z " fill="rgb(0,0,0)"/></g></svg>