<?xml version="1.0" encoding="UTF-8" standalone="no"?><!-- Generator: Gravit.io --><svg xmlns="http://www.w3.org/2000/svg" xmlns:xlink="http://www.w3.org/1999/xlink" style="isolation:isolate" viewBox="0 0 942 477" width="942pt" height="477pt"><defs><clipPath id="_clipPath_V4mCfSjwdsAsFBupx98ef8ObCEOGFISU"><rect width="942" height="477"/></clipPath></defs><g clip-path="url(#_clipPath_V4mCfSjwdsAsFBupx98ef8ObCEOGFISU)"><path d=" M 516.167 434.636 L 516.167 447.776 L 482.552 447.776 L 482.552 461.059 L 516.167 461.059 L 516.167 474.2 L 549.782 454.418 L 547.621 453.146 L 516.167 434.636 Z  M 520.969 441.822 L 542.353 454.418 L 520.969 467.013 L 520.969 457.738 L 487.354 457.738 L 487.354 451.097 L 520.969 451.097 L 520.969 441.822 Z " fill="rgb(0,0,0)"/><path d=" M 382.71 434.636 L 382.71 447.776 L 416.325 447.776 L 416.325 461.059 L 382.71 461.059 L 382.71 474.2 L 349.094 454.418 L 351.255 453.146 L 382.71 434.636 Z  M 377.907 441.822 L 356.523 454.418 L 377.907 467.013 L 377.907 457.738 L 411.523 457.738 L 411.523 451.097 L 377.907 451.097 L 377.907 441.822 Z " fill="rgb(0,0,0)"/><g clip-path="url(#_clipPath_ngGravoEx99wOstU7dSGAGX0G6vL73BO)"><text transform="matrix(1,0,0,1,420.101,463.901)" style="font-family:'Open Sans';font-weight:700;font-size:30px;font-style:normal;fill:#000000;stroke:none;">Pan</text></g><defs><clipPath id="_clipPath_ngGravoEx99wOstU7dSGAGX0G6vL73BO"><rect x="0" y="0" width="72.835" height="45.165" transform="matrix(1,0,0,1,413.021,431.835)"/></clipPath></defs><g clip-path="url(#_clipPath_HfmHFLHavn3IIu7whYyjRe9umx2lfJI0)"><text transform="matrix(1,0,0,1,813.166,252.267)" style="font-family:'Open Sans';font-weight:700;font-size:30px;font-style:normal;fill:#000000;stroke:none;">Volume</text></g><defs><clipPath id="_clipPath_HfmHFLHavn3IIu7whYyjRe9umx2lfJI0"><rect x="0" y="0" width="126.458" height="41.793" transform="matrix(1,0,0,1,808,220.202)"/></clipPath></defs><path d=" M 895.458 293.74 L 880.418 293.787 L 880.237 261.077 L 865.033 261.125 L 865.215 293.835 L 850.175 293.882 L 872.998 326.521 L 874.442 324.413 L 895.458 293.74 Z  M 887.259 298.439 L 872.958 319.292 L 858.426 298.529 L 869.042 298.496 L 868.86 265.786 L 876.462 265.762 L 876.643 298.472 L 887.259 298.439 Z " fill="rgb(0,0,0)"/><path d=" M 895.458 183.118 L 880.418 183.165 L 880.6 215.875 L 865.397 215.923 L 865.215 183.213 L 850.175 183.26 L 872.635 150.479 L 874.102 152.578 L 895.458 183.118 Z  M 887.207 178.471 L 872.675 157.708 L 858.374 178.561 L 868.99 178.528 L 869.171 211.238 L 876.773 211.214 L 876.591 178.504 L 887.207 178.471 Z " fill="rgb(0,0,0)"/></g></svg>