<?xml version="1.0" encoding="UTF-8" standalone="no"?><!-- Generator: Gravit.io --><svg xmlns="http://www.w3.org/2000/svg" xmlns:xlink="http://www.w3.org/1999/xlink" style="isolation:isolate" viewBox="0 0 898 477" width="898pt" height="477pt"><defs><clipPath id="_clipPath_eiNC9Q5ao8LhqvhUIz5PZW2K9fYMlbgK"><rect width="898" height="477"/></clipPath></defs><g clip-path="url(#_clipPath_eiNC9Q5ao8LhqvhUIz5PZW2K9fYMlbgK)"><path d=" M 516.167 434.636 L 516.167 447.776 L 482.552 447.776 L 482.552 461.059 L 516.167 461.059 L 516.167 474.2 L 549.782 454.418 L 547.621 453.146 L 516.167 434.636 Z  M 520.969 441.822 L 542.353 454.418 L 520.969 467.013 L 520.969 457.738 L 487.354 457.738 L 487.354 451.097 L 520.969 451.097 L 520.969 441.822 Z " fill="rgb(0,0,0)"/><path d=" M 382.71 434.636 L 382.71 447.776 L 416.325 447.776 L 416.325 461.059 L 382.71 461.059 L 382.71 474.2 L 349.094 454.418 L 351.255 453.146 L 382.71 434.636 Z  M 377.907 441.822 L 356.523 454.418 L 377.907 467.013 L 377.907 457.738 L 411.523 457.738 L 411.523 451.097 L 377.907 451.097 L 377.907 441.822 Z " fill="rgb(0,0,0)"/><g clip-path="url(#_clipPath_9EJFLqzpOUl9G4dNUFeP7tCGrkjHngc8)"><text transform="matrix(1,0,0,1,420.101,463.901)" style="font-family:'Open Sans';font-weight:700;font-size:30px;font-style:normal;fill:#000000;stroke:none;">Pan</text></g><defs><clipPath id="_clipPath_9EJFLqzpOUl9G4dNUFeP7tCGrkjHngc8"><rect x="0" y="0" width="72.835" height="45.165" transform="matrix(1,0,0,1,413.021,431.835)"/></clipPath></defs><g clip-path="url(#_clipPath_aWmRgb4b1zOn2iMl74zGbF9YGNesi6R9)"><text transform="matrix(1,0,0,1,776.708,252.267)" style="font-family:'Open Sans';font-weight:700;font-size:30px;font-style:normal;fill:#000000;stroke:none;">Volume</text></g><defs><clipPath id="_clipPath_aWmRgb4b1zOn2iMl74zGbF9YGNesi6R9"><rect x="0" y="0" width="126.458" height="41.793" transform="matrix(1,0,0,1,771.542,220.202)"/></clipPath></defs><path d=" M 859 293.74 L 843.96 293.787 L 843.779 261.077 L 828.575 261.125 L 828.757 293.835 L 813.717 293.882 L 836.54 326.521 L 837.984 324.413 L 859 293.74 Z  M 850.801 298.439 L 836.5 319.292 L 821.968 298.529 L 832.584 298.496 L 832.402 265.786 L 840.004 265.762 L 840.185 298.472 L 850.801 298.439 Z " fill="rgb(0,0,0)"/><path d=" M 859 183.118 L 843.96 183.165 L 844.142 215.875 L 828.938 215.923 L 828.757 183.213 L 813.717 183.26 L 836.177 150.479 L 837.644 152.578 L 859 183.118 Z  M 850.749 178.471 L 836.217 157.708 L 821.916 178.561 L 832.532 178.528 L 832.713 211.238 L 840.315 211.214 L 840.133 178.504 L 850.749 178.471 Z " fill="rgb(0,0,0)"/></g></svg>